<svg xmlns="http://www.w3.org/2000/svg" version="1.1" xmlns:xlink="http://www.w3.org/1999/xlink" width="512" height="512" x="0" y="0" viewBox="0 0 512 512" style="enable-background:new 0 0 512 512" xml:space="preserve" class=""><g><linearGradient id="a" x1="56" x2="456" y1="256" y2="256" gradientUnits="userSpaceOnUse"><stop stop-opacity="1" stop-color="#ec008c" offset="0"></stop><stop stop-opacity="1" stop-color="#010101" offset="0"></stop></linearGradient><path fill="url(#a)" d="M366 56H146a90 90 0 0 0-90 90v220a90 90 0 0 0 90 90h220a90 90 0 0 0 90-90V146a90 90 0 0 0-90-90zM247 373.6l46.08-53.76 25.6 15L264 401.76h-72V172.64l56.64-62.4L320 176.16l-33.92 25.28-55.36-40-.32 212.16z" opacity="1" data-original="url(#a)" class=""></path></g></svg>